# xmcd
#
# Track frame offsets: 
#        150
#        15365
#        31058
#        46065
#        62073
#        79730
#        95148
#        111457
#        127623
#        143164
#        160426
#        176965
#        192102
#        207753
#
# Disc length: 3016 seconds
#
# Revision: 4
# Processed by: cddbd v1.5.2PL0 Copyright (c) Steve Scherf et al.
# Submitted via: ExactAudioCopy v1.1
#
DISCID=b60bc60e
DTITLE=Andrea Berg - Seelenbeben
DYEAR=2016
DGENRE=Pop
TTITLE0=Lust Auf Pures Leben
TTITLE1=Ich Werde Lacheln Wenn Du Gehst
TTITLE2=Das Hat Die Welt Noch Nie Gesehen
TTITLE3=Sternentraumer
TTITLE4=Seelenleben
TTITLE5=Diese Nacht Ist Jede Sunde Wert
TTITLE6=Du Bist Das Feuer
TTITLE7=Drachenreiter
TTITLE8=Solang Die Erde Sich Dreht
TTITLE9=Marchenschloss
TTITLE10=Schlaflose Nachte
TTITLE11=Es Muss Ja Nicht Fur Immer Sein
TTITLE12=Lass Mich In Flammen Stehen
TTITLE13=Wunderland
EXTD=
EXTT0=
EXTT1=
EXTT2=
EXTT3=
EXTT4=
EXTT5=
EXTT6=
EXTT7=
EXTT8=
EXTT9=
EXTT10=
EXTT11=
EXTT12=
EXTT13=
PLAYORDER=
